<?xml version="1.0" standalone="no"?>
<!DOCTYPE svg PUBLIC "-//W3C//DTD SVG 20010904//EN"
 "http://www.w3.org/TR/2001/REC-SVG-20010904/DTD/svg10.dtd">
<svg version="1.0" xmlns="http://www.w3.org/2000/svg"
 width="340.000000pt" height="148.000000pt" viewBox="0 0 340.000000 148.000000"
 preserveAspectRatio="xMidYMid meet">

<g transform="translate(0.000000,148.000000) scale(0.100000,-0.100000)"
fill="#000000" stroke="none">
<path d="M2190 1310 c-51 -9 -1312 -200 -1490 -225 -63 -9 -118 -22 -122 -28
-9 -15 -13 -48 -54 -475 -20 -210 -35 -384 -32 -387 3 -3 157 29 343 70 l338
76 396 -1 c218 0 418 -3 445 -7 l49 -6 -6 -69 -6 -69 27 5 c15 3 164 29 332
56 168 28 345 57 394 65 49 8 94 15 98 15 6 0 8 63 6 145 l-3 144 -82 163
c-93 185 -219 394 -267 441 -36 36 -103 60 -228 82 -46 8 -85 14 -88 14 -3 -1
-25 -5 -50 -9z m230 -97 c74 -16 106 -34 121 -66 5 -12 27 -49 49 -82 50 -77
98 -164 194 -347 l76 -147 0 -95 0 -96 -341 0 -341 0 6 92 c4 51 9 113 11 138
2 25 11 167 20 315 9 149 18 281 21 294 5 22 8 23 62 16 31 -4 86 -13 122 -22z
m-270 3 c0 -8 -7 -76 -15 -152 -7 -77 -17 -170 -20 -209 -3 -38 -10 -110 -15
-160 -5 -49 -12 -121 -15 -160 -3 -38 -8 -89 -12 -112 l-5 -43 -434 0 -434 0
0 83 c0 80 -2 85 -58 202 -58 118 -172 316 -211 365 l-20 25 295 41 c162 23
314 44 337 47 23 3 71 10 107 16 36 5 85 12 110 16 25 3 115 16 200 29 191 29
190 29 190 12z m-1277 -205 c30 -12 104 -135 234 -394 38 -73 45 -99 48 -157
3 -45 0 -72 -8 -78 -7 -5 -50 -12 -97 -16 -79 -6 -300 -28 -414 -41 l-49 -6 7
108 c4 59 9 131 11 158 2 28 9 133 16 235 6 102 13 188 16 193 6 10 207 9 236
-2z m1367 -691 c-30 -4 -59 -3 -64 1 -6 5 18 8 55 8 l64 -2 -55 -7z"/>
</g>
</svg>
