<?xml version="1.0" standalone="no"?>
<!DOCTYPE svg PUBLIC "-//W3C//DTD SVG 20010904//EN"
 "http://www.w3.org/TR/2001/REC-SVG-20010904/DTD/svg10.dtd">
<svg version="1.0" xmlns="http://www.w3.org/2000/svg"
 width="360.000000pt" height="360.000000pt" viewBox="0 0 360.000000 360.000000"
 preserveAspectRatio="xMidYMid meet">

<g transform="translate(0.000000,360.000000) scale(0.100000,-0.100000)"
fill="#000000" stroke="none">
<path d="M1895 3093 c-38 -20 -105 -72 -105 -82 0 -4 21 -15 47 -24 115 -43
266 -154 310 -227 l16 -28 121 5 c85 4 150 0 218 -11 137 -22 132 -23 124 24
-13 83 -43 124 -125 174 -142 85 -297 143 -458 171 -105 18 -110 18 -148 -2z"/>
<path d="M1055 2863 c-30 -8 -72 -40 -149 -113 -119 -113 -224 -259 -290 -404
-26 -57 -26 -60 -11 -105 8 -25 25 -59 38 -75 l23 -28 69 66 c87 83 233 183
291 198 43 12 44 13 44 53 0 90 67 277 131 366 18 26 19 33 8 40 -15 9 -119
10 -154 2z"/>
<path d="M1887 2254 c-121 -25 -300 -79 -380 -114 -34 -15 -46 -27 -50 -48
-10 -51 -18 -466 -10 -511 l8 -43 280 -99 c153 -54 282 -95 286 -91 21 23 165
200 225 277 95 123 114 150 114 169 0 67 -289 485 -335 485 -11 0 -73 -11
-138 -25z"/>
<path d="M2952 2131 c-13 -88 -39 -171 -88 -280 l-34 -75 29 -70 c40 -97 69
-213 77 -307 4 -44 10 -79 13 -79 11 0 94 55 118 78 63 62 94 462 49 647 -12
49 -22 66 -58 97 -24 20 -55 43 -69 52 l-26 15 -11 -78z"/>
<path d="M620 1508 c-25 -40 -40 -92 -42 -146 -3 -98 167 -374 322 -519 44
-42 47 -43 115 -43 39 0 94 -3 124 -7 l54 -6 -32 56 c-61 108 -121 293 -121
377 0 33 -4 38 -56 63 -91 45 -190 115 -254 179 -33 34 -60 65 -60 69 0 21
-32 6 -50 -23z"/>
<path d="M2089 822 c-111 -99 -219 -169 -296 -193 -24 -6 -43 -18 -43 -26 0
-7 16 -30 35 -51 38 -42 110 -72 175 -72 51 0 165 24 265 56 104 33 302 130
315 154 15 28 50 142 50 163 0 13 -5 17 -17 13 -111 -34 -309 -34 -413 -1 -12
4 -35 -10 -71 -43z"/>
</g>
</svg>
