<svg width="1600" height="1200" xmlns="http://www.w3.org/2000/svg" xmlns:svg="http://www.w3.org/2000/svg">
 <title>yellow color goal</title>

 <metadata id="metadata3375">image/svg+xml</metadata>
 <g>
  <title>Layer 1</title>
  <g id="svg_24">
   <path fill="#ffff00" stroke="#bf0000" stroke-width="5.70964" id="path28" d="m475.43997,627.75207c0,0 0,-88.98968 0,-108.45526c0,-37.71917 -155.89404,-319.80598 -182.496,-332.31866c-26.60211,-12.51439 -169.69367,-16.66055 -169.69367,-16.66055l0,27.67019c0,0 142.09623,-4.70451 160.38459,11.38242c21.96448,19.32005 149.548,262.34195 167.29281,304.65799c6.89319,16.43964 2.80497,118.55164 2.80497,118.55164l21.7073,-4.82776l0,-0.00001z"/>
   <polygon fill="#ffff56" stroke="#bf0000" stroke-width="5" id="polygon35" points="51.44032725811735,658.7567138671875 44.522253561140815,730.0445556640625 474.1908649999075,634.5253295898438 474.1908649999075,616.8388671875 "/>
   <path fill="#ffff00" stroke="#bf0000" stroke-width="5.38706" id="path37" d="m77.7021,709.45361c-4.62598,18.67682 -51.85425,24.93866 -51.85425,24.93866l52.92392,-543.28788c0,0 2.61037,-12.96378 11.6905,-14.72136c25.37048,-4.90618 25.37048,-4.90618 25.37048,-4.90618l-33.44165,515.9872c0.00162,-0.00299 -1.09023,7.45599 -4.689,21.98956l0,0z"/>
   <path fill="#ffff00" stroke="#bf0000" stroke-width="5.38706" id="path39" d="m481.31842,634.94037c15.51218,-3.44672 1022.42731,14.62756 1022.42731,14.62756l65.80627,-30.56903c0,0 -1079.16074,-1.255 -1093.36267,-2.15863c0,-0.00232 -2.60678,19.82221 5.12909,18.1001z"/>
   <path fill="#ffff00" stroke="#bf0000" stroke-width="5.38706" id="path41" d="m1146.78149,55.33549c0,0 132.93775,18.28161 169.43616,35.32856c33.2207,15.51439 205.38172,340.87178 227.86463,394.61168c8.73339,20.87512 3.55273,150.55081 3.55273,150.55081l27.50391,-6.12775c0,0 0,-113.01056 0,-137.7319c0,-47.89978 -187.8617,-389.98641 -234.92615,-426.30786c-49.62097,-38.2955 -189.0343,-51.15664 -189.0343,-51.15664"/>
   <path fill="none" stroke="#000000" stroke-width="1.354822" id="path120" d="m47.15482,634.94037"/>
   <path fill="none" stroke="#000000" stroke-width="0.677411" id="path131" d="m381.10559,205.69824c156.84381,253.64484 137.77564,197.82959 156.84381,253.64484c19.06818,55.81537 7.62726,127.78912 7.62726,127.78912"/>
   <path fill="none" stroke="#000000" stroke-width="0.677411" id="path133" d="m437.79739,201.0298c156.84354,253.64293 137.7753,197.82762 156.84354,253.64293c19.06812,55.81515 7.6272,127.78723 7.6272,127.78723"/>
   <path fill="none" stroke="#000000" stroke-width="0.677411" id="path135" d="m521.73566,201.0298c156.84338,253.64482 137.77514,197.82945 156.84338,253.64482c19.06836,55.81531 7.6275,127.78717 7.6275,127.78717"/>
   <path fill="none" stroke="#000000" stroke-width="0.677411" id="path137" d="m607.58063,170.42714c156.84344,277.03941 137.77508,216.07509 156.84344,277.03941c19.06836,60.96216 7.6272,139.5741 7.6272,139.5741"/>
   <path fill="none" stroke="#000000" stroke-width="0.677411" id="path139" d="m711.38977,158.46672c156.84345,289.56386 137.77527,225.84462 156.84345,289.56386c19.06829,63.72119 7.62725,145.88562 7.62725,145.88562"/>
   <path fill="none" stroke="#000000" stroke-width="0.677411" id="path141" d="m845.24853,141.84158c156.84565,289.56604 137.77729,225.8447 156.84565,289.56604c19.06799,63.71921 7.62719,145.88529 7.62719,145.88529"/>
   <path fill="none" stroke="#000000" stroke-width="0.677411" id="path143" d="m968.89056,127.67034c49.57752,104.42269 59.85505,147.04954 59.85505,147.04954"/>
   <path fill="none" stroke="#000000" stroke-width="0.677411" id="path145" d="m418.1535,265.09387c619.38288,-76.85371 619.38288,-76.85371 619.38288,-76.85371"/>
   <path fill="none" stroke="#000000" stroke-width="0.677411" id="path147" d="m437.27292,337.92474c591.47269,-63.20477 591.47269,-63.20477 591.47269,-63.20477"/>
   <path fill="none" stroke="#000000" stroke-width="0.677411" id="path149" d="m475.76791,418.14752c557.95462,-62.46142 557.95462,-62.46142 557.95462,-62.46142"/>
   <path fill="none" stroke="#000000" stroke-width="0.677411" id="path151" d="m521.73352,480.68448c487.68488,-15.29532 487.68488,-15.29532 487.68488,-15.29532"/>
   <path fill="none" stroke="#000000" stroke-width="0.677411" id="path153" d="m521.73566,540.987c508.17328,6.06592 508.17328,6.06592 508.17328,6.06592"/>
   <path fill="none" stroke="#000000" stroke-width="1.354822" d="m1085.32031,754.19946" id="path157"/>
   <polygon fill="#ffff00" stroke="#bf0000" stroke-width="5" points="1038.3333228447425,665.0796508789062 1029.5651512867023,732.2330322265625 1574.1380703336742,642.2537231445312 1574.1380703336742,625.5929565429688 " id="svg_2"/>
   <path fill="#ffff00" stroke="#bf0000" stroke-width="5.419288" id="path122" d="m1028.74561,733.03381c0,0 59.84008,-7.7406 65.70129,-30.85376c4.55737,-17.9768 5.94373,-27.20251 5.94373,-27.20251l42.3695,-638.39943l-46.11243,-5.817l-67.9021,702.2727"/>
   <path fill="#ffff00" stroke="#bf0000" stroke-width="5.38706" id="path129" d="m1152.31433,14.64468c0,0 -1039.58608,158.50824 -1053.67477,158.25885c-28.84114,-0.50965 -15.91129,35.02392 -0.3595,32.68531c15.55376,-2.33876 1049.62216,-149.49055 1049.62216,-149.49055l4.41187,-41.45361"/>
   <g id="svg_3">
    <line fill="none" stroke="#0000ff" id="line72" y2="125.761233" x2="1343.524817" y1="99.945166" x1="1139.777995" stroke-width="2"/>
    <line fill="none" stroke="#0000ff" id="line74" y2="195.036074" x2="1386.714435" y1="172.723455" x1="1135.692831" stroke-width="2"/>
    <line fill="none" stroke="#0000ff" id="line76" y2="278.9536" x2="1434.523764" y1="264.402034" x1="1130.777998" stroke-width="2"/>
    <line fill="none" stroke="#0000ff" id="line78" y2="353.315112" x2="1474.787349" y1="353.315112" x1="1123.627068" stroke-width="2"/>
    <line fill="none" stroke="#0000ff" id="line80" y2="440.357453" x2="1520.353592" y1="453.142876" x1="1113.627071" stroke-width="2"/>
    <line fill="none" stroke="#0000ff" id="line82" y2="521.92482" x2="1547.606485" y1="537.114213" x1="1109.153098" stroke-width="2"/>
    <line fill="none" stroke="#0000ff" id="line84" y2="579.671753" x2="1546.320845" y1="602.032941" x1="1105.663845" stroke-width="2"/>
   </g>
   <g id="svg_4">
    <line fill="none" stroke="#0000ff" id="line54" y2="61.388737" x2="1172.188876" y1="656.851762" x1="1127.777998" stroke-width="2"/>
    <line fill="none" stroke="#0000ff" id="line56" y2="67.519384" x2="1213.009161" y1="653.518414" x1="1171.522211" stroke-width="2"/>
    <line fill="none" stroke="#0000ff" id="line58" y2="649.911455" x2="1213.675825" y1="76.98522" x1="1259.372364" stroke-width="2"/>
    <line fill="none" stroke="#0000ff" id="line60" y2="84.985181" x2="1295.298331" y1="647.368569" x1="1269.209203" stroke-width="2"/>
    <line fill="none" stroke="#0000ff" id="line62" y2="125.761233" x2="1343.524819" y1="643.667611" x1="1320.881783" stroke-width="2"/>
    <line fill="none" stroke="#0000ff" id="line64" y2="195.036074" x2="1385.381105" y1="639.371367" x1="1364.980958" stroke-width="2"/>
    <line fill="none" stroke="#0000ff" id="line66" y2="260.402049" x2="1423.833245" y1="634.979519" x1="1410.069351" stroke-width="2"/>
    <line fill="none" stroke="#0000ff" id="line68" y2="353.315111" x2="1472.787384" y1="631.460797" x1="1459.880869" stroke-width="2"/>
    <line fill="none" stroke="#0000ff" id="line70" y2="424.921159" x2="1513.45129" y1="629.595123" x1="1499.580937" stroke-width="2"/>
   </g>
   <g id="svg_23">
    <line fill="none" stroke="#0000ff" y2="199.160375" x2="159.402436" y1="654.195459" x1="113.82925" stroke-width="2" id="svg_14" transform="rotate(-3.108407974243164 136.61584472656156,426.6779174804684) "/>
    <line fill="none" stroke="#0000ff" y2="201.490886" x2="201.285174" y1="649.293867" x1="158.712441" stroke-width="2" id="svg_15" transform="rotate(-3.108407974243164 179.99880981445182,425.39236450195307) "/>
    <line fill="none" stroke="#0000ff" y2="644.042989" x2="201.944329" y1="203.286887" x1="249.995877" stroke-width="2" id="svg_16" transform="rotate(-3.0657730102539062 225.97009277343798,423.6649475097655) "/>
    <line fill="none" stroke="#0000ff" y2="204.832055" x2="285.910156" y1="637.660931" x1="258.758655" stroke-width="2" id="svg_17" transform="rotate(-1.5294169187545776 272.3344116210949,421.2465209960926) "/>
    <line fill="none" stroke="#0000ff" y2="274.156386" x2="329.0048" y1="632.979431" x1="307.775497" stroke-width="2" id="svg_18" transform="rotate(-0.6827526688575745 318.39013671874216,453.56790161132557) "/>
    <line fill="none" stroke="#0000ff" y2="360.990475" x2="381.202703" y1="628.187923" x1="360.26865" stroke-width="2" id="svg_19" transform="rotate(-3.108407974243164 370.7356872558598,494.5892028808594) "/>
    <line fill="none" stroke="#0000ff" y2="443.753911" x2="423.81573" y1="622.447357" x1="409.691611" stroke-width="2" id="svg_20" transform="rotate(-3.108407974243164 416.75369262695745,533.1006469726566) "/>
   </g>
  </g>
 </g>
</svg>